<mxfile host="65bd71144e">
    <diagram id="X5Bh6OqSKBVW1OXpb6x_" name="Page-1">
        <mxGraphModel dx="608" dy="565" grid="1" gridSize="10" guides="1" tooltips="1" connect="1" arrows="1" fold="1" page="1" pageScale="1" pageWidth="850" pageHeight="1100" math="0" shadow="0">
            <root>
                <mxCell id="0"/>
                <mxCell id="1" parent="0"/>
                <mxCell id="4" value="&lt;font color=&quot;#030303&quot;&gt;LAND&lt;/font&gt;" style="swimlane;fontStyle=0;childLayout=stackLayout;horizontal=1;startSize=30;horizontalStack=0;resizeParent=1;resizeParentMax=0;resizeLast=0;collapsible=1;marginBottom=0;whiteSpace=wrap;html=1;fillColor=#99CCFF;strokeColor=#000000;" vertex="1" parent="1">
                    <mxGeometry x="40" y="40" width="140" height="80" as="geometry"/>
                </mxCell>
                <mxCell id="5" value="&lt;font color=&quot;#0d0c0c&quot;&gt;id&lt;br&gt;land&lt;/font&gt;" style="text;strokeColor=#000000;fillColor=#FFFFFF;align=left;verticalAlign=middle;spacingLeft=4;spacingRight=4;overflow=hidden;points=[[0,0.5],[1,0.5]];portConstraint=eastwest;rotatable=0;whiteSpace=wrap;html=1;" vertex="1" parent="4">
                    <mxGeometry y="30" width="140" height="50" as="geometry"/>
                </mxCell>
                <mxCell id="16" value="&lt;font color=&quot;#030303&quot;&gt;PROVINCIE&lt;/font&gt;" style="swimlane;fontStyle=0;childLayout=stackLayout;horizontal=1;startSize=30;horizontalStack=0;resizeParent=1;resizeParentMax=0;resizeLast=0;collapsible=1;marginBottom=0;whiteSpace=wrap;html=1;fillColor=#99CCFF;strokeColor=#000000;" vertex="1" parent="1">
                    <mxGeometry x="40" y="150" width="140" height="90" as="geometry"/>
                </mxCell>
                <mxCell id="17" value="&lt;font color=&quot;#0d0c0c&quot;&gt;id&lt;br&gt;land_id&lt;br&gt;provincie&lt;br&gt;&lt;/font&gt;" style="text;strokeColor=#000000;fillColor=#FFFFFF;align=left;verticalAlign=middle;spacingLeft=4;spacingRight=4;overflow=hidden;points=[[0,0.5],[1,0.5]];portConstraint=eastwest;rotatable=0;whiteSpace=wrap;html=1;" vertex="1" parent="16">
                    <mxGeometry y="30" width="140" height="60" as="geometry"/>
                </mxCell>
                <mxCell id="33" value="&lt;font color=&quot;#030303&quot;&gt;GEMEENTE&lt;/font&gt;" style="swimlane;fontStyle=0;childLayout=stackLayout;horizontal=1;startSize=30;horizontalStack=0;resizeParent=1;resizeParentMax=0;resizeLast=0;collapsible=1;marginBottom=0;whiteSpace=wrap;html=1;fillColor=#99CCFF;strokeColor=#000000;" vertex="1" parent="1">
                    <mxGeometry x="40" y="270" width="140" height="90" as="geometry"/>
                </mxCell>
                <mxCell id="34" value="&lt;font color=&quot;#0d0c0c&quot;&gt;id&lt;br&gt;provincie_id&lt;br&gt;gemeente&lt;br&gt;&lt;/font&gt;" style="text;strokeColor=#000000;fillColor=#FFFFFF;align=left;verticalAlign=middle;spacingLeft=4;spacingRight=4;overflow=hidden;points=[[0,0.5],[1,0.5]];portConstraint=eastwest;rotatable=0;whiteSpace=wrap;html=1;" vertex="1" parent="33">
                    <mxGeometry y="30" width="140" height="60" as="geometry"/>
                </mxCell>
                <mxCell id="35" value="&lt;font color=&quot;#030303&quot;&gt;PLAATS&lt;/font&gt;" style="swimlane;fontStyle=0;childLayout=stackLayout;horizontal=1;startSize=30;horizontalStack=0;resizeParent=1;resizeParentMax=0;resizeLast=0;collapsible=1;marginBottom=0;whiteSpace=wrap;html=1;fillColor=#99CCFF;strokeColor=#000000;" vertex="1" parent="1">
                    <mxGeometry x="40" y="390" width="140" height="90" as="geometry"/>
                </mxCell>
                <mxCell id="36" value="&lt;font color=&quot;#0d0c0c&quot;&gt;id&lt;br&gt;gemeente_id&lt;br&gt;plaats&lt;br&gt;&lt;/font&gt;" style="text;strokeColor=#000000;fillColor=#FFFFFF;align=left;verticalAlign=middle;spacingLeft=4;spacingRight=4;overflow=hidden;points=[[0,0.5],[1,0.5]];portConstraint=eastwest;rotatable=0;whiteSpace=wrap;html=1;" vertex="1" parent="35">
                    <mxGeometry y="30" width="140" height="60" as="geometry"/>
                </mxCell>
                <mxCell id="37" value="&lt;font color=&quot;#030303&quot;&gt;POSTCODE&lt;/font&gt;" style="swimlane;fontStyle=0;childLayout=stackLayout;horizontal=1;startSize=30;horizontalStack=0;resizeParent=1;resizeParentMax=0;resizeLast=0;collapsible=1;marginBottom=0;whiteSpace=wrap;html=1;fillColor=#99CCFF;strokeColor=#000000;" vertex="1" parent="1">
                    <mxGeometry x="40" y="510" width="140" height="120" as="geometry"/>
                </mxCell>
                <mxCell id="38" value="&lt;font color=&quot;#0d0c0c&quot;&gt;id&lt;br&gt;plaats_id&lt;br&gt;postcode&lt;br&gt;locatie_lat&lt;br&gt;locatie_long&lt;br&gt;&lt;/font&gt;" style="text;strokeColor=#000000;fillColor=#FFFFFF;align=left;verticalAlign=middle;spacingLeft=4;spacingRight=4;overflow=hidden;points=[[0,0.5],[1,0.5]];portConstraint=eastwest;rotatable=0;whiteSpace=wrap;html=1;" vertex="1" parent="37">
                    <mxGeometry y="30" width="140" height="90" as="geometry"/>
                </mxCell>
                <mxCell id="39" value="&lt;font color=&quot;#030303&quot;&gt;ADRES&lt;/font&gt;" style="swimlane;fontStyle=0;childLayout=stackLayout;horizontal=1;startSize=30;horizontalStack=0;resizeParent=1;resizeParentMax=0;resizeLast=0;collapsible=1;marginBottom=0;whiteSpace=wrap;html=1;fillColor=#99CCFF;strokeColor=#000000;" vertex="1" parent="1">
                    <mxGeometry x="240" y="450" width="140" height="90" as="geometry"/>
                </mxCell>
                <mxCell id="40" value="&lt;font color=&quot;#0d0c0c&quot;&gt;id&lt;br&gt;postcode_id&lt;br&gt;huisnummer&lt;br&gt;&lt;/font&gt;" style="text;strokeColor=#000000;fillColor=#FFFFFF;align=left;verticalAlign=middle;spacingLeft=4;spacingRight=4;overflow=hidden;points=[[0,0.5],[1,0.5]];portConstraint=eastwest;rotatable=0;whiteSpace=wrap;html=1;" vertex="1" parent="39">
                    <mxGeometry y="30" width="140" height="60" as="geometry"/>
                </mxCell>
                <mxCell id="41" value="&lt;font color=&quot;#030303&quot;&gt;POSTBUS&lt;/font&gt;" style="swimlane;fontStyle=0;childLayout=stackLayout;horizontal=1;startSize=30;horizontalStack=0;resizeParent=1;resizeParentMax=0;resizeLast=0;collapsible=1;marginBottom=0;whiteSpace=wrap;html=1;fillColor=#99CCFF;strokeColor=#000000;" vertex="1" parent="1">
                    <mxGeometry x="240" y="580" width="140" height="90" as="geometry"/>
                </mxCell>
                <mxCell id="42" value="&lt;font color=&quot;#0d0c0c&quot;&gt;id&lt;br&gt;postcode_id&lt;br&gt;postbusnummer&lt;br&gt;&lt;/font&gt;" style="text;strokeColor=#000000;fillColor=#FFFFFF;align=left;verticalAlign=middle;spacingLeft=4;spacingRight=4;overflow=hidden;points=[[0,0.5],[1,0.5]];portConstraint=eastwest;rotatable=0;whiteSpace=wrap;html=1;" vertex="1" parent="41">
                    <mxGeometry y="30" width="140" height="60" as="geometry"/>
                </mxCell>
                <mxCell id="45" value="&lt;font color=&quot;#030303&quot;&gt;LEVERANCIER&lt;/font&gt;" style="swimlane;fontStyle=0;childLayout=stackLayout;horizontal=1;startSize=30;horizontalStack=0;resizeParent=1;resizeParentMax=0;resizeLast=0;collapsible=1;marginBottom=0;whiteSpace=wrap;html=1;fillColor=#FFCC99;strokeColor=#000000;" vertex="1" parent="1">
                    <mxGeometry x="460" y="480" width="140" height="160" as="geometry"/>
                </mxCell>
                <mxCell id="46" value="&lt;font color=&quot;#0d0c0c&quot;&gt;id&lt;br&gt;adres_id&lt;br&gt;postbus_id&lt;br&gt;naam&lt;br&gt;email&lt;br&gt;telefoonnummer_mobiel&lt;br&gt;telefoonnummer_vast&lt;br&gt;&lt;/font&gt;" style="text;strokeColor=#000000;fillColor=#FFFFFF;align=left;verticalAlign=middle;spacingLeft=4;spacingRight=4;overflow=hidden;points=[[0,0.5],[1,0.5]];portConstraint=eastwest;rotatable=0;whiteSpace=wrap;html=1;" vertex="1" parent="45">
                    <mxGeometry y="30" width="140" height="130" as="geometry"/>
                </mxCell>
                <mxCell id="48" value="&lt;font color=&quot;#030303&quot;&gt;AFDELING&lt;/font&gt;" style="swimlane;fontStyle=0;childLayout=stackLayout;horizontal=1;startSize=30;horizontalStack=0;resizeParent=1;resizeParentMax=0;resizeLast=0;collapsible=1;marginBottom=0;whiteSpace=wrap;html=1;fillColor=#E5CCFF;strokeColor=#000000;" vertex="1" parent="1">
                    <mxGeometry x="460" y="160" width="140" height="80" as="geometry"/>
                </mxCell>
                <mxCell id="49" value="&lt;font color=&quot;#0d0c0c&quot;&gt;id&lt;br&gt;afdeling&lt;/font&gt;" style="text;strokeColor=#000000;fillColor=#FFFFFF;align=left;verticalAlign=middle;spacingLeft=4;spacingRight=4;overflow=hidden;points=[[0,0.5],[1,0.5]];portConstraint=eastwest;rotatable=0;whiteSpace=wrap;html=1;" vertex="1" parent="48">
                    <mxGeometry y="30" width="140" height="50" as="geometry"/>
                </mxCell>
                <mxCell id="98" style="edgeStyle=none;html=1;entryX=0.998;entryY=0.406;entryDx=0;entryDy=0;strokeColor=#FF0000;fontColor=#030303;entryPerimeter=0;" edge="1" parent="1" source="50" target="49">
                    <mxGeometry relative="1" as="geometry"/>
                </mxCell>
                <mxCell id="50" value="&lt;font color=&quot;#030303&quot;&gt;TAAK&lt;/font&gt;" style="swimlane;fontStyle=0;childLayout=stackLayout;horizontal=1;startSize=30;horizontalStack=0;resizeParent=1;resizeParentMax=0;resizeLast=0;collapsible=1;marginBottom=0;whiteSpace=wrap;html=1;fillColor=#E5CCFF;strokeColor=#000000;" vertex="1" parent="1">
                    <mxGeometry x="680" y="160" width="140" height="100" as="geometry"/>
                </mxCell>
                <mxCell id="51" value="&lt;font color=&quot;#0d0c0c&quot;&gt;id&lt;br&gt;contactpersoon_id&lt;br&gt;afdeling_id&lt;br&gt;taak&lt;/font&gt;" style="text;strokeColor=#000000;fillColor=#FFFFFF;align=left;verticalAlign=middle;spacingLeft=4;spacingRight=4;overflow=hidden;points=[[0,0.5],[1,0.5]];portConstraint=eastwest;rotatable=0;whiteSpace=wrap;html=1;" vertex="1" parent="50">
                    <mxGeometry y="30" width="140" height="70" as="geometry"/>
                </mxCell>
                <mxCell id="52" value="&lt;font color=&quot;#030303&quot;&gt;CONTACTPERSOON&lt;/font&gt;" style="swimlane;fontStyle=0;childLayout=stackLayout;horizontal=1;startSize=30;horizontalStack=0;resizeParent=1;resizeParentMax=0;resizeLast=0;collapsible=1;marginBottom=0;whiteSpace=wrap;html=1;fillColor=#E5CCFF;strokeColor=#000000;" vertex="1" parent="1">
                    <mxGeometry x="460" y="290" width="140" height="130" as="geometry"/>
                </mxCell>
                <mxCell id="53" value="&lt;font color=&quot;#0d0c0c&quot;&gt;id&lt;br&gt;leverancier_id&lt;br&gt;afdeling_id&lt;br&gt;naam&lt;br&gt;email&lt;br&gt;telefoonnummer&lt;br&gt;&lt;/font&gt;" style="text;strokeColor=#000000;fillColor=#FFFFFF;align=left;verticalAlign=middle;spacingLeft=4;spacingRight=4;overflow=hidden;points=[[0,0.5],[1,0.5]];portConstraint=eastwest;rotatable=0;whiteSpace=wrap;html=1;" vertex="1" parent="52">
                    <mxGeometry y="30" width="140" height="100" as="geometry"/>
                </mxCell>
                <mxCell id="55" value="&lt;font color=&quot;#030303&quot;&gt;RUBRIEK&lt;/font&gt;" style="swimlane;fontStyle=0;childLayout=stackLayout;horizontal=1;startSize=30;horizontalStack=0;resizeParent=1;resizeParentMax=0;resizeLast=0;collapsible=1;marginBottom=0;whiteSpace=wrap;html=1;fillColor=#E6FFCC;strokeColor=#000000;" vertex="1" parent="1">
                    <mxGeometry x="670" y="705" width="140" height="80" as="geometry"/>
                </mxCell>
                <mxCell id="56" value="&lt;font color=&quot;#0d0c0c&quot;&gt;id&lt;br&gt;rubriek&lt;/font&gt;" style="text;strokeColor=#000000;fillColor=#FFFFFF;align=left;verticalAlign=middle;spacingLeft=4;spacingRight=4;overflow=hidden;points=[[0,0.5],[1,0.5]];portConstraint=eastwest;rotatable=0;whiteSpace=wrap;html=1;" vertex="1" parent="55">
                    <mxGeometry y="30" width="140" height="50" as="geometry"/>
                </mxCell>
                <mxCell id="57" value="&lt;font color=&quot;#030303&quot;&gt;SUBRUBRIEK&lt;/font&gt;" style="swimlane;fontStyle=0;childLayout=stackLayout;horizontal=1;startSize=30;horizontalStack=0;resizeParent=1;resizeParentMax=0;resizeLast=0;collapsible=1;marginBottom=0;whiteSpace=wrap;html=1;fillColor=#E6FFCC;strokeColor=#000000;" vertex="1" parent="1">
                    <mxGeometry x="770" y="830" width="140" height="90" as="geometry"/>
                </mxCell>
                <mxCell id="58" value="&lt;font color=&quot;#0d0c0c&quot;&gt;id&lt;br&gt;hoofdrubriek_id&lt;br&gt;subrubriek&lt;br&gt;&lt;/font&gt;" style="text;strokeColor=#000000;fillColor=#FFFFFF;align=left;verticalAlign=middle;spacingLeft=4;spacingRight=4;overflow=hidden;points=[[0,0.5],[1,0.5]];portConstraint=eastwest;rotatable=0;whiteSpace=wrap;html=1;" vertex="1" parent="57">
                    <mxGeometry y="30" width="140" height="60" as="geometry"/>
                </mxCell>
                <mxCell id="61" value="&lt;font color=&quot;#030303&quot;&gt;LEVERANCIER_RUBRIEK&lt;/font&gt;" style="swimlane;fontStyle=0;childLayout=stackLayout;horizontal=1;startSize=30;horizontalStack=0;resizeParent=1;resizeParentMax=0;resizeLast=0;collapsible=1;marginBottom=0;whiteSpace=wrap;html=1;fillColor=#E6FFCC;strokeColor=#000000;" vertex="1" parent="1">
                    <mxGeometry x="445" y="700" width="170" height="90" as="geometry"/>
                </mxCell>
                <mxCell id="62" value="&lt;font color=&quot;#0d0c0c&quot;&gt;id&lt;br&gt;rubriek_id&lt;br&gt;leverancier_id&lt;br&gt;&lt;/font&gt;" style="text;strokeColor=#000000;fillColor=#FFFFFF;align=left;verticalAlign=middle;spacingLeft=4;spacingRight=4;overflow=hidden;points=[[0,0.5],[1,0.5]];portConstraint=eastwest;rotatable=0;whiteSpace=wrap;html=1;" vertex="1" parent="61">
                    <mxGeometry y="30" width="170" height="60" as="geometry"/>
                </mxCell>
                <mxCell id="63" value="&lt;font color=&quot;#030303&quot;&gt;EIGENSCHAP_A&lt;/font&gt;" style="swimlane;fontStyle=0;childLayout=stackLayout;horizontal=1;startSize=30;horizontalStack=0;resizeParent=1;resizeParentMax=0;resizeLast=0;collapsible=1;marginBottom=0;whiteSpace=wrap;html=1;fillColor=#FF99CC;strokeColor=#000000;" vertex="1" parent="1">
                    <mxGeometry x="960" y="190" width="140" height="100" as="geometry"/>
                </mxCell>
                <mxCell id="64" value="&lt;font color=&quot;#0d0c0c&quot;&gt;id&lt;br&gt;eigenschap_id&lt;br&gt;tekstveld&lt;br&gt;&lt;/font&gt;" style="text;strokeColor=#000000;fillColor=#FFFFFF;align=left;verticalAlign=middle;spacingLeft=4;spacingRight=4;overflow=hidden;points=[[0,0.5],[1,0.5]];portConstraint=eastwest;rotatable=0;whiteSpace=wrap;html=1;" vertex="1" parent="63">
                    <mxGeometry y="30" width="140" height="70" as="geometry"/>
                </mxCell>
                <mxCell id="65" value="&lt;font color=&quot;#030303&quot;&gt;EIGENSCHAP_B&lt;/font&gt;" style="swimlane;fontStyle=0;childLayout=stackLayout;horizontal=1;startSize=30;horizontalStack=0;resizeParent=1;resizeParentMax=0;resizeLast=0;collapsible=1;marginBottom=0;whiteSpace=wrap;html=1;fillColor=#FF99CC;strokeColor=#000000;" vertex="1" parent="1">
                    <mxGeometry x="960" y="330" width="140" height="100" as="geometry"/>
                </mxCell>
                <mxCell id="66" value="&lt;font color=&quot;#0d0c0c&quot;&gt;id&lt;br&gt;eigenschap_id&lt;br&gt;nummeriekveld&lt;br&gt;&lt;/font&gt;" style="text;strokeColor=#000000;fillColor=#FFFFFF;align=left;verticalAlign=middle;spacingLeft=4;spacingRight=4;overflow=hidden;points=[[0,0.5],[1,0.5]];portConstraint=eastwest;rotatable=0;whiteSpace=wrap;html=1;" vertex="1" parent="65">
                    <mxGeometry y="30" width="140" height="70" as="geometry"/>
                </mxCell>
                <mxCell id="67" value="&lt;font color=&quot;#030303&quot;&gt;EIGENSCHAP_C&lt;/font&gt;" style="swimlane;fontStyle=0;childLayout=stackLayout;horizontal=1;startSize=30;horizontalStack=0;resizeParent=1;resizeParentMax=0;resizeLast=0;collapsible=1;marginBottom=0;whiteSpace=wrap;html=1;fillColor=#FF99CC;strokeColor=#000000;" vertex="1" parent="1">
                    <mxGeometry x="960" y="480" width="140" height="100" as="geometry"/>
                </mxCell>
                <mxCell id="68" value="&lt;font color=&quot;#0d0c0c&quot;&gt;id&lt;br&gt;eigenschap_id&lt;br&gt;tekstveld&lt;br&gt;&lt;/font&gt;" style="text;strokeColor=#000000;fillColor=#FFFFFF;align=left;verticalAlign=middle;spacingLeft=4;spacingRight=4;overflow=hidden;points=[[0,0.5],[1,0.5]];portConstraint=eastwest;rotatable=0;whiteSpace=wrap;html=1;" vertex="1" parent="67">
                    <mxGeometry y="30" width="140" height="70" as="geometry"/>
                </mxCell>
                <mxCell id="69" value="&lt;font color=&quot;#030303&quot;&gt;EIGENSCHAP&lt;/font&gt;" style="swimlane;fontStyle=0;childLayout=stackLayout;horizontal=1;startSize=30;horizontalStack=0;resizeParent=1;resizeParentMax=0;resizeLast=0;collapsible=1;marginBottom=0;whiteSpace=wrap;html=1;fillColor=#FF99CC;strokeColor=#000000;" vertex="1" parent="1">
                    <mxGeometry x="740" y="370" width="140" height="90" as="geometry"/>
                </mxCell>
                <mxCell id="70" value="&lt;font color=&quot;#0d0c0c&quot;&gt;id&lt;br&gt;eigenschap&lt;br&gt;&lt;/font&gt;" style="text;strokeColor=#000000;fillColor=#FFFFFF;align=left;verticalAlign=middle;spacingLeft=4;spacingRight=4;overflow=hidden;points=[[0,0.5],[1,0.5]];portConstraint=eastwest;rotatable=0;whiteSpace=wrap;html=1;" vertex="1" parent="69">
                    <mxGeometry y="30" width="140" height="60" as="geometry"/>
                </mxCell>
                <mxCell id="87" value="" style="edgeStyle=none;html=1;strokeColor=#FF0000;fontColor=#030303;exitX=0.648;exitY=0.014;exitDx=0;exitDy=0;exitPerimeter=0;" edge="1" parent="1" source="71" target="70">
                    <mxGeometry relative="1" as="geometry"/>
                </mxCell>
                <mxCell id="71" value="&lt;font color=&quot;#030303&quot;&gt;LEVERANCIER_EIGENSCHAP&lt;/font&gt;" style="swimlane;fontStyle=0;childLayout=stackLayout;horizontal=1;startSize=30;horizontalStack=0;resizeParent=1;resizeParentMax=0;resizeLast=0;collapsible=1;marginBottom=0;whiteSpace=wrap;html=1;fillColor=#FF99CC;strokeColor=#000000;" vertex="1" parent="1">
                    <mxGeometry x="680" y="510" width="200" height="100" as="geometry"/>
                </mxCell>
                <mxCell id="72" value="&lt;font color=&quot;#0d0c0c&quot;&gt;id&lt;br&gt;eigenschap_id&lt;br&gt;leverancier_id&lt;br&gt;&lt;/font&gt;" style="text;strokeColor=#000000;fillColor=#FFFFFF;align=left;verticalAlign=middle;spacingLeft=4;spacingRight=4;overflow=hidden;points=[[0,0.5],[1,0.5]];portConstraint=eastwest;rotatable=0;whiteSpace=wrap;html=1;" vertex="1" parent="71">
                    <mxGeometry y="30" width="200" height="70" as="geometry"/>
                </mxCell>
                <mxCell id="73" value="&lt;font color=&quot;#030303&quot;&gt;HOOFDRUBRIEK&lt;/font&gt;" style="swimlane;fontStyle=0;childLayout=stackLayout;horizontal=1;startSize=30;horizontalStack=0;resizeParent=1;resizeParentMax=0;resizeLast=0;collapsible=1;marginBottom=0;whiteSpace=wrap;html=1;fillColor=#E6FFCC;strokeColor=#000000;" vertex="1" parent="1">
                    <mxGeometry x="590" y="830" width="140" height="90" as="geometry"/>
                </mxCell>
                <mxCell id="74" value="&lt;font color=&quot;#0d0c0c&quot;&gt;id&lt;br&gt;hoofdrubriek&lt;br&gt;&lt;/font&gt;" style="text;strokeColor=#000000;fillColor=#FFFFFF;align=left;verticalAlign=middle;spacingLeft=4;spacingRight=4;overflow=hidden;points=[[0,0.5],[1,0.5]];portConstraint=eastwest;rotatable=0;whiteSpace=wrap;html=1;" vertex="1" parent="73">
                    <mxGeometry y="30" width="140" height="60" as="geometry"/>
                </mxCell>
                <mxCell id="75" value="" style="endArrow=classic;html=1;fontColor=#030303;exitX=0.5;exitY=1;exitDx=0;exitDy=0;entryX=0.5;entryY=0;entryDx=0;entryDy=0;strokeColor=#FF0000;" edge="1" parent="1" source="4" target="16">
                    <mxGeometry width="50" height="50" relative="1" as="geometry">
                        <mxPoint x="570" y="290" as="sourcePoint"/>
                        <mxPoint x="620" y="240" as="targetPoint"/>
                    </mxGeometry>
                </mxCell>
                <mxCell id="76" value="" style="endArrow=classic;html=1;fontColor=#030303;exitX=0.494;exitY=1.043;exitDx=0;exitDy=0;strokeColor=#FF0000;exitPerimeter=0;entryX=0.5;entryY=0;entryDx=0;entryDy=0;" edge="1" parent="1" source="17" target="33">
                    <mxGeometry width="50" height="50" relative="1" as="geometry">
                        <mxPoint x="120" y="130" as="sourcePoint"/>
                        <mxPoint x="110" y="270" as="targetPoint"/>
                    </mxGeometry>
                </mxCell>
                <mxCell id="79" value="" style="endArrow=classic;html=1;fontColor=#030303;entryX=0.5;entryY=0;entryDx=0;entryDy=0;strokeColor=#FF0000;" edge="1" parent="1" source="34" target="35">
                    <mxGeometry width="50" height="50" relative="1" as="geometry">
                        <mxPoint x="130" y="140" as="sourcePoint"/>
                        <mxPoint x="130" y="170" as="targetPoint"/>
                    </mxGeometry>
                </mxCell>
                <mxCell id="80" value="" style="endArrow=classic;html=1;fontColor=#030303;exitX=0.494;exitY=1.052;exitDx=0;exitDy=0;strokeColor=#FF0000;exitPerimeter=0;" edge="1" parent="1" source="36" target="37">
                    <mxGeometry width="50" height="50" relative="1" as="geometry">
                        <mxPoint x="140" y="150" as="sourcePoint"/>
                        <mxPoint x="140" y="180" as="targetPoint"/>
                    </mxGeometry>
                </mxCell>
                <mxCell id="81" value="" style="endArrow=classic;html=1;fontColor=#030303;exitX=1;exitY=0.5;exitDx=0;exitDy=0;strokeColor=#FF0000;entryX=0;entryY=0.5;entryDx=0;entryDy=0;" edge="1" parent="1" source="38" target="40">
                    <mxGeometry width="50" height="50" relative="1" as="geometry">
                        <mxPoint x="119.15999999999985" y="493.12" as="sourcePoint"/>
                        <mxPoint x="119.41988950276232" y="520" as="targetPoint"/>
                    </mxGeometry>
                </mxCell>
                <mxCell id="82" value="" style="edgeStyle=none;html=1;strokeColor=#FF0000;fontColor=#030303;exitX=1;exitY=0.5;exitDx=0;exitDy=0;entryX=0;entryY=0.5;entryDx=0;entryDy=0;" edge="1" parent="1" source="38" target="42">
                    <mxGeometry relative="1" as="geometry"/>
                </mxCell>
                <mxCell id="84" value="" style="edgeStyle=none;html=1;strokeColor=#FF0000;fontColor=#030303;exitX=1;exitY=0.5;exitDx=0;exitDy=0;" edge="1" parent="1" source="40" target="46">
                    <mxGeometry relative="1" as="geometry"/>
                </mxCell>
                <mxCell id="85" style="edgeStyle=none;html=1;entryX=0;entryY=0.5;entryDx=0;entryDy=0;strokeColor=#FF0000;fontColor=#030303;exitX=1;exitY=0.5;exitDx=0;exitDy=0;" edge="1" parent="1" source="42" target="46">
                    <mxGeometry relative="1" as="geometry"/>
                </mxCell>
                <mxCell id="86" value="" style="edgeStyle=none;html=1;strokeColor=#FF0000;fontColor=#030303;" edge="1" parent="1" source="46" target="72">
                    <mxGeometry relative="1" as="geometry"/>
                </mxCell>
                <mxCell id="88" style="edgeStyle=none;html=1;entryX=0;entryY=0.5;entryDx=0;entryDy=0;strokeColor=#FF0000;fontColor=#030303;exitX=1;exitY=0.5;exitDx=0;exitDy=0;" edge="1" parent="1" source="70" target="68">
                    <mxGeometry relative="1" as="geometry"/>
                </mxCell>
                <mxCell id="89" style="edgeStyle=none;html=1;entryX=0;entryY=0.5;entryDx=0;entryDy=0;strokeColor=#FF0000;fontColor=#030303;exitX=1;exitY=0.5;exitDx=0;exitDy=0;" edge="1" parent="1" source="70" target="66">
                    <mxGeometry relative="1" as="geometry"/>
                </mxCell>
                <mxCell id="90" style="edgeStyle=none;html=1;entryX=0;entryY=0.5;entryDx=0;entryDy=0;strokeColor=#FF0000;fontColor=#030303;exitX=1;exitY=0.5;exitDx=0;exitDy=0;" edge="1" parent="1" source="70" target="64">
                    <mxGeometry relative="1" as="geometry"/>
                </mxCell>
                <mxCell id="91" style="edgeStyle=none;html=1;entryX=0.5;entryY=0;entryDx=0;entryDy=0;strokeColor=#FF0000;fontColor=#030303;" edge="1" parent="1" source="46" target="61">
                    <mxGeometry relative="1" as="geometry"/>
                </mxCell>
                <mxCell id="92" value="" style="edgeStyle=none;html=1;strokeColor=#FF0000;fontColor=#030303;" edge="1" parent="1" source="62" target="56">
                    <mxGeometry relative="1" as="geometry"/>
                </mxCell>
                <mxCell id="94" style="edgeStyle=none;html=1;entryX=0.5;entryY=0;entryDx=0;entryDy=0;strokeColor=#FF0000;fontColor=#030303;exitX=0.5;exitY=1;exitDx=0;exitDy=0;" edge="1" parent="1" source="55" target="73">
                    <mxGeometry relative="1" as="geometry"/>
                </mxCell>
                <mxCell id="95" style="edgeStyle=none;html=1;entryX=0.5;entryY=0;entryDx=0;entryDy=0;strokeColor=#FF0000;fontColor=#030303;exitX=0.5;exitY=1;exitDx=0;exitDy=0;" edge="1" parent="1" source="55" target="57">
                    <mxGeometry relative="1" as="geometry"/>
                </mxCell>
                <mxCell id="96" style="edgeStyle=none;html=1;strokeColor=#FF0000;fontColor=#030303;exitX=0.5;exitY=0;exitDx=0;exitDy=0;" edge="1" parent="1" source="45" target="53">
                    <mxGeometry relative="1" as="geometry"/>
                </mxCell>
                <mxCell id="97" style="edgeStyle=none;html=1;entryX=0.5;entryY=0;entryDx=0;entryDy=0;strokeColor=#FF0000;fontColor=#030303;" edge="1" parent="1" source="49" target="52">
                    <mxGeometry relative="1" as="geometry"/>
                </mxCell>
                <mxCell id="100" value="" style="edgeStyle=none;html=1;strokeColor=#FF0000;fontColor=#030303;" edge="1" parent="1">
                    <mxGeometry relative="1" as="geometry">
                        <mxPoint x="54" y="896.7" as="sourcePoint"/>
                        <mxPoint x="94" y="896.7" as="targetPoint"/>
                    </mxGeometry>
                </mxCell>
                <mxCell id="101" value="&lt;font color=&quot;#ff0000&quot;&gt;=&lt;/font&gt;" style="text;html=1;strokeColor=none;fillColor=none;align=center;verticalAlign=middle;whiteSpace=wrap;rounded=0;fontColor=#030303;" vertex="1" parent="1">
                    <mxGeometry x="84" y="882" width="60" height="30" as="geometry"/>
                </mxCell>
                <mxCell id="104" value="" style="endArrow=none;html=1;strokeColor=#FF0000;fontColor=#030303;" edge="1" parent="1">
                    <mxGeometry width="50" height="50" relative="1" as="geometry">
                        <mxPoint x="134" y="896.74" as="sourcePoint"/>
                        <mxPoint x="184" y="897" as="targetPoint"/>
                    </mxGeometry>
                </mxCell>
                <mxCell id="106" value="" style="endArrow=none;html=1;strokeColor=#FF0000;fontColor=#030303;" edge="1" parent="1">
                    <mxGeometry width="50" height="50" relative="1" as="geometry">
                        <mxPoint x="184" y="907" as="sourcePoint"/>
                        <mxPoint x="184" y="887" as="targetPoint"/>
                        <Array as="points">
                            <mxPoint x="164" y="897"/>
                        </Array>
                    </mxGeometry>
                </mxCell>
            </root>
        </mxGraphModel>
    </diagram>
</mxfile>